<?xml version="1.0" encoding="UTF-8"?>
<svg id="Calque_1" data-name="Calque 1" xmlns="http://www.w3.org/2000/svg" viewBox="0 0 475.87 406.89">
  <defs>
    <style>
      .cls-1 {
        fill: #364f62;
      }

      .cls-1, .cls-2, .cls-3, .cls-4, .cls-5, .cls-6, .cls-7, .cls-8, .cls-9, .cls-10, .cls-11, .cls-12, .cls-13, .cls-14, .cls-15, .cls-16, .cls-17, .cls-18, .cls-19, .cls-20, .cls-21, .cls-22, .cls-23, .cls-24, .cls-25, .cls-26 {
        stroke-width: 0px;
      }

      .cls-2 {
        fill: #2d4356;
      }

      .cls-3 {
        fill: #1c2f40;
      }

      .cls-4 {
        fill: #425f75;
      }

      .cls-5 {
        fill: #eef2f5;
      }

      .cls-6 {
        fill: #364e61;
      }

      .cls-7 {
        fill: #57758d;
      }

      .cls-8 {
        fill: #395064;
      }

      .cls-9 {
        fill: #24394b;
      }

      .cls-10 {
        fill: #49657b;
      }

      .cls-11 {
        fill: #223545;
      }

      .cls-12 {
        fill: #2c4456;
      }

      .cls-13 {
        fill: #354e62;
      }

      .cls-14 {
        fill: #010d17;
      }

      .cls-15 {
        fill: #fdfdfd;
      }

      .cls-16 {
        fill: #132433;
      }

      .cls-17 {
        fill: #2f4353;
      }

      .cls-18 {
        fill: #fbfcfd;
      }

      .cls-19 {
        fill: #2e4455;
      }

      .cls-20 {
        fill: #617f98;
      }

      .cls-21 {
        fill: #fcfdfd;
      }

      .cls-22 {
        fill: #3c5467;
      }

      .cls-23 {
        fill: #59778c;
      }

      .cls-24 {
        fill: #32485c;
      }

      .cls-25 {
        fill: #4d6b81;
      }

      .cls-26 {
        fill: #445e72;
      }
    </style>
  </defs>
  <path class="cls-11" d="M284.43,223.94c-9.11,4.27-18.74,6.84-28.53,8.54-22.54,3.92-44.45,1.15-65.62-7.66-16.43-6.84-30.69-17.07-43.57-29.64-8.46-8.26-16.7-16.74-24.93-25.23-3.3-3.41-6.39-7.05-9.51-10.64-.99-1.14-1.93-2.41-1.84-4.47,10.39,0,20.73,0,31.08,0,1.73,0,2.62,1.44,3.7,2.51,7.76,7.69,14.92,16,23.15,23.19,13.11,11.45,27.7,19.81,44.55,23.87,19.72,4.75,38.95,3.18,57.86-3.94-.85,5.29,1.35,8.71,5.79,11.3,3.04,1.77,5.04,4.99,7.41,7.65,1.14,1.29,1.85,2.84.45,4.51Z"/>
  <path class="cls-7" d="M198.67,52.17c42.41-10.55,81.05-2.35,116.13,24.53,15.28,11.71,29.65,24.43,43.07,38.32.54.55,1.09,1.1,1.62,1.66,1.67,1.77,1.27,4.01.73,5.91-.49,1.75-2.41.91-3.68.93-7.34.07-14.68-.1-22.01.09-2.89.07-4.94-.84-6.99-2.93-15.51-15.79-32.58-29.33-52.71-38.36-11.01-4.94-22.54-7.55-34.46-8.47-5.56.91-9.63-2.4-13.81-5.3-1.61-1.12-3.26-1.95-5.21-2.12-1.82-.16-3.48-.87-4.8-2.13-3.47-3.31-7.65-4.89-12.16-5.89-3.96-.88-5.74-2.98-5.72-6.24Z"/>
  <path class="cls-16" d="M238.88,278.91c-41.59,0-83.18-.01-124.77.08-2.89,0-3.63-.97-3.61-3.84.1-17.78.06-35.56.03-53.34,0-2.29.14-4.13,3.11-4.17,9.09-.12,18.19.41,27.28-.29,2.24-.17,1.5,1.68,1.51,2.76.06,9.02.19,18.05-.06,27.06-.1,3.55,1.02,4.4,4.3,4.35,12.01-.18,24.02-.06,36.03-.05.32,4.21,2.89,6.8,5.98,9.08.96.71,1.87,1.45,3.06,1.25,4.48-.75,8.31,1.72,11.61,3.8,4.01,2.51,8.26,3.63,12.5,5.1,1.31.45,2.82.54,3.92,1.37,4.73,3.54,10.01,4.56,15.71,4.27,1.55-.08,3.4.13,3.41,2.58Z"/>
  <path class="cls-20" d="M274.59.23c27.58-.06,55.16-.09,82.73-.23,2.46-.01,2.91.99,2.91,3.25-.06,17.01-.06,34.02.02,51.03.01,2.33-.57,3.22-2.97,3.18-8.73-.13-17.46-.11-26.19-.02-2.16.02-2.85-.75-2.82-2.95.1-8.63.07-17.27.08-25.9.46-2.53-.34-3.87-3.04-3.94-3.02-.09-5.39-2.15-8.03-3.34-6.24-2.82-12.9-4.58-18.84-8.14-1.24-.74-2.64-.98-4.03-.87-4.3.35-7.65-1.64-10.4-4.69-1.88-2.09-3.92-3.57-6.6-4.31-1.39-.39-3.02-.92-2.81-3.06Z"/>
  <path class="cls-15" d="M100.37,375.18c0,9.67-.11,18.28.06,26.89.06,2.74-.66,3.77-3.34,3.46-3.11-.36-7.12,1.33-9.14-.67-1.84-1.82-.51-5.94-.53-9.05-.09-16.62-.14-33.23-.1-49.85,0-1.35-1.03-3.45,1.15-3.98,1.84-.45,3.53-.14,5.01,1.71,8.21,10.28,16.58,20.43,24.88,30.64.48.6.84,1.31,1.46,2.29,5.93-7.6,11.39-14.63,16.87-21.63,2.7-3.46,5.41-6.91,8.18-10.31.86-1.06,1.59-2.3,3.24-2.43,2.67-.22,4.28-.12,4.25,3.67-.18,18.71-.07,37.42.09,56.13.02,2.67-.51,3.75-3.27,3.47-3.12-.31-7.2,1-9.17-.62-2.1-1.72-.61-6.11-.67-9.33-.12-6.74-.04-13.48-.94-20.49-2.92,4.01-5.84,8.02-8.77,12.03-2.52,3.44-5.14,6.8-7.55,10.32-1.6,2.34-2.61,3.23-4.7.23-4.36-6.25-9.12-12.2-13.72-18.27-.91-1.2-1.86-2.38-3.3-4.21Z"/>
  <path class="cls-10" d="M203.93,97.49c17.2-13.85,45.93-13.6,63.3.7,17.31,14.26,23.21,32.75,18.6,55-2.4.91-4.95.81-6.83-.72-3.45-2.81-7.23-5.08-10.81-7.68-2.54-1.84-3.31-4.78-4.88-7.22-1.67-3.88-4.36-7-7.09-10.08-4.61-8.14-11.2-12.96-20.56-13.13-1.77-.03-3.54.07-5.31-.1-9.04-.71-16.66-5.23-24.3-9.7-3.68-2.16-4.01-3.34-2.12-7.07Z"/>
  <path class="cls-15" d="M425.85,373.54c0-9.41.07-18.83-.04-28.24-.03-2.32.51-3.18,2.92-3.16,14.41.13,28.83.12,43.24.08,1.85,0,2.61.35,2.7,2.53.48,10.98.55,10.97-10.05,10.97-7.59,0-15.17.1-22.76-.02-2.16-.03-2.7.64-2.72,2.84-.09,9.24-.16,9.24,8.63,9.26,6.45.01,12.9.09,19.34-.01,1.93-.03,2.56.47,2.63,2.59.34,10.61.41,10.61-9.61,10.61-6.07,0-12.14.1-18.2-.04-2.17-.05-2.7.65-2.73,2.83-.13,8.94-.2,8.94,8.57,8.94,8.22,0,16.44.1,24.65-.05,2.47-.05,3.49.35,3.46,3.29-.09,9.55.04,9.55-9.11,9.55-12.39,0-24.78-.07-37.17.1-2.86.04-3.9-.57-3.82-3.8.23-9.41.08-18.83.09-28.24Z"/>
  <path class="cls-2" d="M260.13,187.05c-8.7,5.31-18.05,7.32-28.15,6.54-8.85-.68-17.16-2.81-24.56-7.95-12.73-8.85-20.93-20.81-23.29-36.77-1.28-8.64-.85-17.09,1.63-25.44,3.15-.61,4.69,2.04,5.8,3.98,3.15,5.49,9.47,6.33,13.42,10.53,1.41,1.5,2.98-1.32,4.58-.23,1.32,2.75.86,5.84,1.57,8.74,2.43,9.94,8.76,15.73,17.86,18.79,1.19.4,2.48.5,3.48,1.38,4.06,4.55,8.92,7.88,14.25,10.71,4.13,2.19,7.62,5.56,12.05,7.29.89.35,1.76,1.12,1.34,2.44Z"/>
  <path class="cls-3" d="M238.88,278.91c-.86-1.78-2.46-1.53-3.96-1.54-5-.01-9.72.06-14.24-3.53-3.09-2.46-7.63-3.22-11.65-4.1-2.34-.52-3.95-2.36-5.62-2.9-3.73-1.2-6.76-4.93-11.26-3.71-1.78.48-3.51.17-4.46-1.93-.31-.68-.9-1.55-1.51-1.69-4.68-1.11-4.3-4.45-3.5-8.04,24.82.01,49.63.02,74.45.03,1.93.52,4.23.73,4.7,3.22,1.03,5.48,5.43,7.51,9.51,8.34,4.9.99,8.79,3.78,13.16,5.63,1.96.83,3.78,1.34,5.84.87,3.43-.78,6.36.04,8.16,3.31,1.29,2.35,4.8,2.7,4.91,6.02-21.51,0-43.03.01-64.54.02Z"/>
  <path class="cls-25" d="M150.81.19c16.21.02,32.42.04,48.63.06,7.19.23,13.54,3.03,20.1,5.93,6.65,2.95,13.82,4.84,20.79,7.1,11.08,3.6,22.49,5.83,33.76,8.62,4.03,1,4.82,2.86,2.76,5.69-16.76.04-33.53.11-50.29.11-15.13,0-30.25-.07-45.38-.11,1.12-5.85.82-5.89-4.86-8.84-3.08-1.6-6.6-2.74-8.88-5.76-.15-.2-.35-.49-.56-.51-6.39-.66-9.21-6.84-14.11-9.78-.92-.55-2.19-.94-1.95-2.51Z"/>
  <path class="cls-18" d="M8.99,383.95c4.51,4.88,9.53,8.23,15.77,9.28,3.08.52,6.1.27,8.64-1.81,3.1-2.53,2.86-6.17-.76-7.78-3.8-1.69-7.88-2.71-11.83-4.06-2.03-.69-4.08-1.37-6.05-2.22-6.48-2.81-10.57-7.67-10.94-15.08-.37-7.53,2.73-13.54,8.95-17.44,11.52-7.22,26.79-2.66,35.23,5.04.92.84,1.23,1.57.32,2.6-.51.58-.91,1.26-1.38,1.86-2,2.53-3.57,6.2-6.14,7.26-2.85,1.18-4.76-3.13-7.44-4.54-3.62-1.9-7.19-3.24-11.23-1.89-2.12.71-3.99,1.9-4.27,4.44-.29,2.63,1.29,4.22,3.43,5.02,5.09,1.9,10.3,3.47,15.38,5.41,5.76,2.2,10.62,5.58,12.41,12.15,2.41,8.83-2.6,18.64-11.66,22.4-12.58,5.22-26.58,1.14-36.62-7.96-1.17-1.06-.98-1.79-.05-2.87,2.77-3.2,5.45-6.49,8.22-9.81Z"/>
  <path class="cls-9" d="M303.42,278.89c-2.31-2.49-5.5-3.96-7.18-7.24-.81-1.58-2.97-1.84-4.47-1.23-5.28,2.16-9.08-1.39-13.12-3.55-1.93-1.03-3.6-2.08-5.87-2.12-4.53-.08-10.25-4.31-11.48-8.71-.68-2.44-2.25-3.56-4.17-4.56,22.12-.02,44.23-.13,66.35.03,3.63.03,4.37-1.21,4.38-4.67.03-6.08-.85-12.22.56-18.27,1.36,1.18,1.14,2.83,1.16,4.36.07,4.31.02,8.63.02,12.95,0,5.85,2.51,9.91,7.85,12.11,5.21,2.15,9.38,5.49,11.72,11.01,1.02,2.4,3.66,3.6,4.78,6.02.56,1.21,2.06,2.14,1.1,3.82-17.22,0-34.43.01-51.65.02Z"/>
  <path class="cls-13" d="M142.41,37.05c.03,10.6.04,21.2.08,31.79,0,1.5-.15,2.76-1.62,3.65-9.93,5.99-19.28,12.9-28.72,19.66-.27.19-.67.2-1.03.31-.92-1.24-.5-2.58-.5-3.82-.05-28.13-.07-56.27-.05-84.4,0-1.34-.63-2.91.76-4.01,1.18,1.25,1.04,2.86,1.08,4.41.04,1.82-.15,3.66.11,5.46.54,3.77,1.48,7.06,5.24,9.21,4.48,2.57,8.43,6.12,13.25,8.15.58.25,1.28.57,1.5,1.13,1.87,4.64,6.17,6.2,9.91,8.47Z"/>
  <path class="cls-23" d="M276.85,27.6c1.58-2.72-.02-4.23-2.21-4.44-6.91-.67-13.22-3.92-20.22-4.43-4.01-.3-7.84-2.71-11.86-3.61-7.95-1.79-15.17-5.99-23.26-7.26-1.62-.25-2.84-1.66-4.16-2.53-4.84-3.2-10.56-3.13-15.7-5.09,25.05,0,50.1-.01,75.15-.02,5.67,2.39,10.14,6.61,14.94,10.34.47.36,1.22.61,1.79.51,5.92-.96,10.28,3.27,15.44,4.76,7.34,2.11,13.52,7.39,21.36,7.95,1.09.08,1.97.83,2.27,1.84.5,1.72-1.55,1.81-2.03,2.95-1.29-1.17-2.86-.79-4.34-.8-15.72-.08-31.44-.13-47.17-.19Z"/>
  <path class="cls-4" d="M142.41,37.05c-4.43-.4-8.12-1.99-9.83-6.65-.34-.91-.74-1.65-1.7-1.91-6.46-1.75-10.91-7.13-16.79-10.07-2.29-1.15-2.51-5.38-2.73-8.43-.23-3.24-.04-6.52-.04-9.78,13.16,0,26.33-.02,39.49-.03,2.91,2.29,6.62,3.33,8.55,7.21.82,1.65,3.08,3.4,5.75,3.03.77-.1,1.94.27,2.4.86,3.15,4.07,7.6,5.66,12.09,7.39,3.7,1.43,4.33,5.83,1.58,8.9-11.33.05-22.67.28-33.99.04-3.97-.08-5.23,1.27-4.73,5.12.18,1.4-.02,2.86-.04,4.29Z"/>
  <path class="cls-24" d="M284.43,223.94c0-5.22-4.84-6.87-7.25-10.32-.83-1.19-2.33-1.93-3.62-2.72-4.26-2.63-5.1-5.7-2.79-10.43,15.73-6.61,29.96-15.82,43.33-26.54,2.37,4.03,5.16,7.68,8.7,10.69.49.42,1.04.89,1.19,1.5,1.07,4.27,4.28,6.55,7.54,8.81-14.52,11.72-29.67,22.35-47.1,29.02Z"/>
  <path class="cls-21" d="M370.42,363.84c3.54-6.01,7.03-11.74,10.31-17.6,1.61-2.88,3.52-4.4,6.95-4.09,3.64.33,7.32.07,11.02.07.44,1.4-.69,2.16-1.23,3.07-6.43,10.78-12.88,21.55-19.4,32.27-.86,1.42-1.05,2.84-1.03,4.44.07,6.81-.01,13.61.13,20.42.05,2.22-.24,3.37-2.8,3.16-3.64-.3-8.38,1.2-10.69-.66-2.45-1.98-1.13-7.18-.7-10.82,1.32-11.16-1.95-20.57-8.32-29.46-4.92-6.88-8.95-14.45-13.79-22.4,5.38,0,10.01.03,14.63-.02,1.9-.02,2.56,1.47,3.35,2.76,3.1,5.09,6.14,10.22,9.22,15.32.73,1.2,1.54,2.34,2.35,3.55Z"/>
  <path class="cls-10" d="M198.67,52.17c1.24,3.11,3.4,4.79,6.7,5.38,3.92.7,7.75,1.81,10.73,4.96,1.66,1.75,3.8,2.47,6.28,3,3.99.87,7.83,2.85,10.37,6.43.87,1.22,1.8,1.12,2.89,1.24,1.58.17,3.28-.52,4.73.66-21.62-.96-41.58,5.3-60.73,15.03-1.87-1.26-3.52-2.85-5.73-3.56-1.1-.36-1.89-1.3-2.3-2.42-1.86-4.98-5.56-8.11-9.81-10.77-1.17-.73-2.89-1.37-1.83-3.46,12.23-7.19,25.04-12.91,38.7-16.5Z"/>
  <path class="cls-6" d="M263.19,366.9c-.03-7.19.04-14.39-.16-21.57-.08-2.84.96-3.53,3.53-3.52,14.29.1,28.57.09,42.86.01,2.47-.01,3.82.37,3.31,3.46-.38,2.29-.25,4.71-.07,7.04.21,2.76-.81,3.61-3.46,3.57-9.48-.14-18.97.07-28.44-.14-3.2-.07-4.07,1.01-4.01,4.22.13,7.72-.01,7.72,7.35,7.72,7.21,0,14.41.08,21.62-.03,2.29-.03,3.19.72,3.06,3.14-.18,3.13-.1,6.27-.13,9.41-9.13.62-18.27.05-27.38.16-6.43.08-9.26-3.13-11.72-8.14-1.32-2.69-4.75-2.91-6.35-5.36Z"/>
  <path class="cls-15" d="M189.43,373.82c0-9.42.11-18.85-.07-28.27-.05-2.82.8-3.66,3.39-3.42,2.13.19,4.33.23,6.44-.06,3.19-.44,3.7,1.04,3.69,3.97-.08,14.13.12,28.27.03,42.4-.02,2.78.77,3.52,3.4,3.47,8.22-.15,16.45.05,24.67-.07,2.37-.04,3.51.46,3.23,3.19-.35,3.35,1.28,7.65-.68,9.84-1.83,2.04-5.99.57-9.11.59-10.63.07-21.26-.06-31.89.05-2.28.02-3.03-.54-2.99-3.02.15-9.55.06-19.11.06-28.66h-.17Z"/>
  <path class="cls-6" d="M260.13,187.05c-1.33-2.48-4.18-2.17-6.11-3.55-5.22-3.73-10.77-6.89-16.25-10.16-2.27-1.35-3.84-3.95-5.73-5.99.72-.91,1.74-1,2.74-1.01,11.65-.15,24.06-10,24.5-22.87.01-.38.23-.74.4-1.08,2.03-1.34,2.94-3.57,4.13-5.58,2.59,1.16,1.73,4.47,3.98,6.28,3.75,3.01,8.27,4.83,11.58,8.46,1.74,1.91,4.51.23,6.46,1.65-3.6,15.32-12.15,26.61-25.69,33.86Z"/>
  <path class="cls-26" d="M331.54,194.92c-4.09-.46-6.56-2.91-7.67-6.87-.42-1.5-1.5-2.28-2.46-3.31-2.97-3.19-6.93-5.73-7.3-10.81,6.79-5.21,13.05-11.09,19.29-16.97,1.73-1.63,3.39-2.35,5.7-2.29,6.06.16,12.12.17,18.18.07,2.28-.04,3.33.74,3.02,3.14-.02.13-.02.26,0,.39,1.51,9.23-1.43,15.89-9.28,21.23-6.79,4.62-12.78,10.56-19.49,15.42Z"/>
  <path class="cls-12" d="M355.07,278.87c-1.97-2.58-3.36-5.5-6-7.72-2.24-1.89-2.25-5.78-5.2-7.73-1.97-1.31-3.65-3.03-5.93-3.99-7.55-3.19-9.45-6.27-9.46-14.75,0-5.36-.04-10.73-.06-16.09.01-2.85.03-5.7.04-8.55,2.11-2.36,4.27-2.1,6.11.2,2.1,2.64,4.67,4.3,7.86,5.05,1.24.29,2.55.76,3.19,1.93,2.76,5.04,7.13,7.31,12.45,8.13,1.25.19,1.99,1.06,1.9,2.49,0,12.4.01,24.8-.02,37.19,0,1.27.35,2.61-.38,3.82-1.51,0-3.01.01-4.52.02Z"/>
  <path class="cls-1" d="M359.59,236.51c-4.92,1.36-7.96-2.9-11.96-4.28-.55-.19-1.39-.73-1.41-1.15-.24-4.19-3.37-4.69-6.3-5.4-2.2-.53-4.13-1.71-5.17-3.63-1.6-2.93-3.64-3.16-6.27-2.01-1.21-8.91.17-15.85,9.17-20.68,7.89-4.24,14.28-11.28,21.96-16.22.56.82.37,1.76.38,2.65.01,16.02.01,32.05,0,48.07,0,.89.2,1.84-.39,2.65Z"/>
  <path class="cls-8" d="M159.97,68.67c0,1.43,1.05,1.9,2.05,2.47,4.62,2.67,8.8,5.76,10.43,11.4.44,1.51,1.72,2.15,3.16,2.39,2.21.37,3.56,1.67,4.03,3.95-7.93,4.85-16.03,9.4-23.57,14.92-4.39,3.38-8.57,2.59-13.16.02-2.84-1.59-5.92-2.91-8.85-4.37-3.6-1.8-5.56-5.18-5.19-9.59,10.1-7.48,20.05-15.2,31.1-21.18Z"/>
  <path class="cls-19" d="M263.19,366.9c4.11,1.01,7.26,3.04,8.97,7.39,1.32,3.36,3.78,4.13,7.67,4.88,9.68,1.85,19.24.36,28.81,1.07-1.08,1.4-2.58.77-3.89.77-8.22.05-16.43.09-24.65-.04-2.42-.04-3.38.66-3.31,3.3.29,10.38-1.43,8.3,8.12,8.44,8.85.13,17.7.11,26.54-.04,2.69-.05,3.42.9,3.43,3.6.03,9.18.12,9.16-8.62,9.16-13.14,0-26.29-.03-39.43.03-2.32.01-3.77-.18-3.73-3.28.16-11.76.07-23.53.08-35.29Z"/>
  <path class="cls-17" d="M128.87,89.85c1.48,2.97,1.81,7.1,5.07,8.39,2.8,1.12,5.29,2.75,8,3.96,4.58,2.05,9.05,4.53,14.13,1.59-7.32,5.76-14.92,11.18-21.14,18.29-1.03,1.18-2.31,1.44-3.77,1.43-5.82-.03-11.64-.12-17.45.03-2.56.07-3.39-.97-3.18-3.45.14-1.69.03-3.4.04-5.1q.04-11.52,9.15-18.26c3.06-2.27,6.1-4.59,9.14-6.89Z"/>
  <path class="cls-22" d="M209.17,137.55c-2.03,2.88-3.95,2.95-6.32.18-1.73-2.02-3.93-3.67-6.69-4.1-1.4-.22-2.12-1.22-2.85-2.33-2.03-3.1-4.29-6-7.53-7.88,3.11-10.85,9-19.61,18.15-25.93-1.27,3.48.27,5.38,3.35,6.46,3.47,1.22,6.2,3.85,9.58,5.36,4.44,1.98,9.01,3.14,13.72,3.95-.07,1.82-1.63,1.73-2.7,2.17-8.82,3.59-15.01,9.67-17.4,19.42-.24.99-.34,2.07-1.31,2.69Z"/>
  <path class="cls-9" d="M359.59,236.51c0-17.79,0-35.58.01-53.37,1.28,1.14.74,2.68.75,4.04.02,29.34,0,58.68-.03,88.02,0,1.24.48,2.64-.73,3.65,0-14.11,0-28.23,0-42.34Z"/>
  <path class="cls-14" d="M209.17,137.55c.76-10.12,8.15-19.56,17.92-22.95,1.17-.41,2.33-.89,3.49-1.33,9.86-1.08,18.15,1.91,24.45,10.05,1.02,1.32,2.21,2.54,2.06,4.44-1.46.62-2.71-.22-3.97-.71-2.85-1.1-5.76-1.93-8.78-2.25-4.49-.47-8.68,2.57-9.38,6.67-.51,2.99.62,5.39,2.83,7.22,2.42,2.01,5.1,2,7.82.7,2.17-1.04,3.91-2.86,6.19-3.73,4.5-1.72,8.56,1.37,8.46,6.44.99,12.66-11.79,26.6-28.21,25.25-4.96-1.46-9.8-3.12-13.82-6.73-6.82-6.13-9.17-14.07-9.06-23.08Z"/>
  <path class="cls-5" d="M260.26,142.11c-3.13-7.28-5.38-7.83-11.91-2.93-4.74,3.55-9.51,3.25-12.79-.8-2.94-3.64-2.59-9.09.91-12.32,2.65-2.44,5.9-2.74,9.24-2.24,4.01.6,7.83,1.89,11.38,3.95,3.28,2.19,5.49,5.23,6.72,9.05-.08,2.56.17,5.35-3.55,5.3Z"/>
</svg>